<?xml version="1.0" standalone="no"?>
<!DOCTYPE svg PUBLIC "-//W3C//DTD SVG 20010904//EN"
 "http://www.w3.org/TR/2001/REC-SVG-20010904/DTD/svg10.dtd">
<svg version="1.0" xmlns="http://www.w3.org/2000/svg"
 width="800.000000pt" height="800.000000pt" viewBox="0 0 800.000000 800.000000"
 preserveAspectRatio="xMidYMid meet">
<metadata>
Created by potrace 1.11, written by Peter Selinger 2001-2013
</metadata>
<g transform="translate(0.000000,800.000000) scale(0.100000,-0.100000)"
fill="#000000" stroke="none">
<path d="M3923 7939 c-154 -20 -273 -70 -451 -190 -157 -106 -3026 -2153
-3117 -2224 -223 -174 -318 -335 -345 -590 -8 -81 -10 -643 -8 -2145 4 -1864
6 -2042 21 -2117 36 -176 109 -314 224 -424 117 -112 240 -173 416 -207 86
-16 294 -17 3337 -17 3043 0 3251 1 3337 17 344 66 569 287 640 631 15 75 17
253 21 2117 2 1502 0 2064 -8 2145 -27 255 -122 416 -345 590 -69 54 -2866
2051 -3090 2206 -161 112 -282 171 -396 193 -106 21 -165 25 -236 15z m1707
-1785 c117 -55 203 -162 229 -282 7 -36 11 -261 11 -705 0 -380 5 -681 10
-722 24 -164 131 -284 290 -326 29 -7 215 -14 515 -18 453 -7 472 -8 526 -30
113 -44 188 -121 230 -236 21 -57 23 -78 27 -467 4 -443 -3 -548 -41 -632 -43
-93 -122 -165 -222 -202 -45 -16 -98 -19 -510 -25 -317 -4 -477 -10 -515 -19
-147 -34 -250 -133 -293 -280 -6 -21 -13 -278 -16 -635 l-6 -600 -32 -67 c-63
-133 -175 -217 -320 -239 -48 -7 -221 -9 -495 -7 -380 4 -428 6 -473 23 -153
56 -252 175 -274 330 -14 94 -14 4733 -1 4828 13 87 55 170 117 228 61 58 94
78 163 101 50 16 98 17 535 15 l480 -2 65 -31z m-2219 16 c167 -32 282 -156
309 -335 7 -48 10 -808 8 -2455 -3 -2247 -4 -2388 -21 -2435 -43 -123 -128
-206 -252 -247 l-70 -23 -1270 0 -1270 0 -67 32 c-113 53 -189 138 -223 249
-22 72 -22 2584 -1 2656 32 104 116 201 213 245 82 38 148 43 586 43 469 0
507 4 606 71 111 74 159 166 172 328 4 58 8 423 9 811 0 753 2 775 51 871 45
89 143 161 249 185 70 16 892 19 971 4z m3909 -4171 c55 -24 92 -66 110 -125
8 -28 10 -186 8 -554 -3 -500 -4 -516 -24 -555 -11 -22 -41 -53 -65 -70 l-44
-30 -485 0 -485 0 -38 27 c-22 14 -51 43 -65 65 l-27 38 0 545 0 545 28 43
c20 31 43 51 80 68 l52 24 453 0 c439 0 455 -1 502 -21z"/>
</g>
</svg>
