<svg xmlns="http://www.w3.org/2000/svg" xmlns:xlink="http://www.w3.org/1999/xlink" width="200" height="199" viewBox="0 0 200 199">
  <defs>
    <path id="artboard-a" d="M11.983785,59.030175 L84.3416563,7.4280629 C90.2644681,3.20420175 92.7233887,2.11231928 95.6393284,1.39397555 C98.5552681,0.675631812 101.444732,0.675631812 104.360672,1.39397555 C107.276611,2.11231928 109.735532,3.20420175 115.658344,7.4280629 L188.016215,59.030175 C192.837752,62.4686605 194.377014,63.926114 195.860838,65.7996561 C197.344662,67.6731982 198.379452,69.6821363 199.043287,71.9780494 C199.707121,74.2739625 200,76.3734199 200,82.2954466 L200,173.361148 C200,182.276335 199.071744,185.509198 197.328673,188.768457 C195.585602,192.027716 193.027716,194.585602 189.768457,196.328673 C186.509198,198.071744 183.276335,199 174.361148,199 L25.638852,199 C16.7236646,199 13.4908022,198.071744 10.231543,196.328673 C6.97228371,194.585602 4.41439796,192.027716 2.67132704,188.768457 C0.928256111,185.509198 -2.5539415e-13,182.276335 -2.56485945e-13,173.361148 L-3.4136102e-14,82.2954466 C-2.17118004e-14,76.3734199 0.292878595,74.2739625 0.956713145,71.9780494 C1.62054769,69.6821363 2.6553382,67.6731982 4.13916202,65.7996561 C5.62298583,63.926114 7.16224812,62.4686605 11.983785,59.030175 Z"/>
    <rect id="artboard-b" width="31" height="34" x="155" y="149" rx="5"/>
    <path id="artboard-c" d="M23.3333368,102 L40.5139086,102 C44.9715023,102 46.5879335,101.535872 48.2175631,100.664337 C49.8471927,99.7928012 51.1261356,98.5138583 51.9976711,96.8842287 C52.8692065,95.2545991 53.3333346,93.6381679 53.3333346,89.1805742 L53.3333346,57.6264024 C53.3333346,53.1688087 53.7974626,51.5523775 54.6689981,49.9227479 C55.5405336,48.2931183 56.8194764,47.0141754 58.4491061,46.1426399 C60.0787357,45.2711045 61.6951669,44.8069764 66.1527606,44.8069764 L80.5139074,44.8069764 C84.9715011,44.8069764 86.5879323,45.2711045 88.2175619,46.1426399 C89.8471915,47.0141754 91.1261344,48.2931183 91.9976698,49.9227479 C92.8692053,51.5523775 93.3333334,53.1688087 93.3333334,57.6264024 L93.3333334,169.97288 C93.3333334,174.430473 92.8692053,176.046905 91.9976698,177.676534 C91.1261344,179.306164 89.8471915,180.585107 88.2175619,181.456642 C86.5879323,182.328178 84.9715011,182.792306 80.5139074,182.792306 L23.3333333,182.792306 C17.8104858,182.792306 13.3333333,178.315154 13.3333333,172.792306 C13.3333333,172.792306 13.3333333,172.792306 13.3333333,172.792306 L13.3333368,112 C13.3333371,106.477153 17.8104895,102.000001 23.3333368,102.000001 Z"/>
    <path id="artboard-d" d="M106.666648,113.799598 L106.666529,54.8068578 C106.666521,49.2840103 111.143667,44.8068514 116.666514,44.8068434 C116.666526,44.8068434 116.666537,44.8068434 116.666548,44.8068434 L136.666657,44.8069338 C142.189497,44.8069442 146.666638,49.2840937 146.666638,54.8069338 L146.666657,84.1805705 C146.666657,88.6381642 147.130785,90.2545954 148.00232,91.884225 C148.873856,93.5138546 150.152798,94.7927975 151.782428,95.664333 C153.412058,96.5358685 155.028489,96.9999966 159.486083,96.9999966 L173.847241,96.9999965 C178.304834,96.9999965 179.921266,97.4641245 181.550895,98.33566 C183.180525,99.2071955 184.459468,100.486138 185.331003,102.115768 C186.202539,103.745398 186.666667,105.361829 186.666667,109.819422 L186.666667,116.295536 L186.666667,123.977725 C186.666667,128.435318 186.202539,130.05175 185.331003,131.681379 C184.459468,133.311009 183.180525,134.589952 181.550895,135.461487 C179.921266,136.333023 178.304834,136.797151 173.847241,136.797151 L159.486083,136.797151 C155.028489,136.797151 153.412058,137.261279 151.782428,138.132814 C150.152799,139.00435 148.873856,140.283292 148.00232,141.912922 C147.130785,143.542552 146.666657,145.158983 146.666657,149.616577 L146.666638,172.792259 C146.666638,178.315099 142.189497,182.792249 136.666657,182.792259 L116.666548,182.792349 C111.1437,182.79236 106.666539,178.315216 106.666529,172.792368 C106.666529,172.792357 106.666529,172.792346 106.666529,172.792335 Z"/>
  </defs>
  <g fill="none" fill-rule="evenodd">
    <use fill="#212F3C" xlink:href="#artboard-a"/>
    <path stroke="#212F3C" d="M12.2740982,59.43726 C7.81755146,62.6154523 6.12048772,64.103283 4.53112353,66.1100851 C3.08761411,67.9327245 2.08283704,69.8833946 1.43703838,72.1169294 C0.725987079,74.5761446 0.5,76.821717 0.5,82.2954466 L0.5,173.361148 C0.5,181.413832 1.17532547,184.910954 3.11223364,188.532658 C4.80870466,191.704783 7.29521737,194.191295 10.4673424,195.887766 C14.0890458,197.824675 17.5861681,198.5 25.638852,198.5 L174.361148,198.5 C182.413832,198.5 185.910954,197.824675 189.532658,195.887766 C192.704783,194.191295 195.191295,191.704783 196.887766,188.532658 C198.824675,184.910954 199.5,181.413832 199.5,173.361148 L199.5,82.2954466 C199.5,76.821717 199.274013,74.5761446 198.562962,72.1169294 C197.917163,69.8833946 196.912386,67.9327245 195.468876,66.1100851 C193.879512,64.103283 192.182449,62.6154523 187.725902,59.43726 L115.368031,7.83514794 C109.95819,3.97711306 107.420999,2.66283802 104.241072,1.8794608 C101.403691,1.18047006 98.5963089,1.18047006 95.758928,1.8794608 C92.5790009,2.66283802 90.0418099,3.97711306 84.6319695,7.83514794 L12.2740982,59.43726 Z"/>
    <use fill="#A9CCE3" xlink:href="#artboard-b"/>
    <rect width="30" height="33" x="155.5" y="149.5" stroke="#A9CCE3" rx="5"/>
    <g>
      <use fill="#3498DB" xlink:href="#artboard-c"/>
      <path stroke="#3498DB" d="M23.3333368,102.500001 C18.0866319,102.500001 13.8333371,106.753295 13.8333368,112 L13.8333333,172.792306 C13.8333333,178.039011 18.0866282,182.292306 23.3333333,182.292306 L80.5139074,182.292306 C84.5025081,182.292306 86.2120799,181.962172 87.9817625,181.015736 C89.5242578,180.1908 90.7318277,178.98323 91.5567633,177.440735 C92.5031998,175.671052 92.8333334,173.96148 92.8333334,169.97288 L92.8333334,57.6264024 C92.8333334,53.6378017 92.5031998,51.9282299 91.5567633,50.1585473 C90.7318277,48.6160519 89.5242578,47.4084821 87.9817625,46.5835465 C86.2120799,45.63711 84.5025081,45.3069764 80.5139074,45.3069764 L66.1527606,45.3069764 C62.1641598,45.3069764 60.454588,45.63711 58.6849055,46.5835465 C57.1424101,47.4084821 55.9348403,48.6160519 55.1099047,50.1585473 C54.1634681,51.9282299 53.8333346,53.6378017 53.8333346,57.6264024 L53.8333346,89.1805742 C53.8333346,93.3201397 53.4730843,95.185669 52.4385777,97.1200281 C51.5204423,98.836792 50.1701264,100.187108 48.4533625,101.105243 C46.5190034,102.13975 44.6534741,102.5 40.5139086,102.5 L23.3333368,102.5 Z"/>
    </g>
    <g>
      <use fill="#FFF" xlink:href="#artboard-d"/>
      <path stroke="#FFF" d="M107.166648,113.799599 L107.166529,172.792367 C107.166539,178.039072 111.419842,182.292359 116.666546,182.292349 L136.666656,182.292259 C141.913354,182.292249 146.166638,178.038957 146.166638,172.792259 L146.166657,149.616577 C146.166657,145.477011 146.526907,143.611482 147.561414,141.677123 C148.479549,139.960359 149.829865,138.610043 151.546629,137.691908 C153.480988,136.657401 155.346517,136.297151 159.486083,136.297151 L173.847241,136.297151 C177.835841,136.297151 179.545413,135.967017 181.315096,135.020581 C182.857591,134.195645 184.065161,132.988075 184.890097,131.44558 C185.836533,129.675897 186.166667,127.966325 186.166667,123.977725 L186.166667,109.819422 C186.166667,105.830822 185.836533,104.12125 184.890097,102.351567 C184.065161,100.809072 182.857591,99.6015022 181.315096,98.7765666 C179.545413,97.83013 177.835841,97.4999965 173.847241,97.4999965 L159.486083,97.4999966 C155.346517,97.4999966 153.480988,97.1397462 151.546629,96.1052396 C149.829865,95.1871042 148.479549,93.8367883 147.561414,92.1200244 C146.526907,90.1856653 146.166657,88.320136 146.166657,84.1805708 L146.166638,54.8069338 C146.166638,49.5602357 141.913354,45.3069437 136.666655,45.3069338 L116.666515,45.3068434 C111.41981,45.306851 107.166521,49.560152 107.166529,54.8068568 L107.166648,113.799597 Z"/>
    </g>
  </g>
</svg>
